PathFileType	4	(X/Y/Z)	C:\Users\°ÂÌØÂü\Desktop\20210112\bx_y_10_501-Unnamed.trc
DataRate	CameraRate	NumFrames	NumMarkers	Units	OrigDataRate	OrigDataStartFrame	OrigNumFrames
50.00	50.00	       4	0	mm	50.00	68	       537
Frame#	Time	
		

68	1.340	-678.22607	-70.12227	1553.24292	-695.73431	284.12329	1539.47009	-590.83624	-5.08209	1047.79834	-584.25507	220.06494	1066.78784	-639.41772	279.90677	875.41479	-584.66345	-5.02873	801.36621	-583.65430	215.18523	815.14630	-722.19159	249.28661	640.48212	-692.38647	82.01987	575.06372	-690.04034	141.13339	574.44983	-668.61194	21.02719	519.58093	-728.60016	244.21269	576.54871	-771.50946	253.15294	503.67868	-675.96252	204.06702	532.31207	-716.09393	81.25587	215.68459	-664.86420	-65.11578	164.76273	-711.40527	151.14905	216.11324	-771.59259	220.92004	204.95189	-882.43616	296.14734	144.72641	-674.33893	57.89260	155.71556	-602.71753	20.09015	165.56636	-675.13000	171.53006	156.68341	-594.78735	222.51208	173.54726	-667.03357	298.08618	160.46982	-629.82928	306.29565	161.80789	-561.31342	262.26697	165.64613	-528.21362	304.49030	146.61002	-658.06677	108.82879	1849.67651	-601.16119	101.86488	1429.62170	-690.97589	271.76724	748.96759	-517.66736	-72.72713	142.77681	-561.82611	-42.77196	163.53278	-796.25385	171.19194	184.29239	-794.08398	58.56165	175.64481	-790.27429	93.68433	1058.97827	-763.64099	-32.89469	487.78442	-766.57324	-2.71722	207.53006	-876.17596	-78.55567	141.83234	-703.18335	-27.13678	615.38898	-716.68207	-23.61484	566.95837	-624.01465	-76.90385	160.26352	-695.96344	-48.91607	716.92407	-647.68396	-67.73407	867.68811	
69	1.360	-678.11591	-70.37803	1553.22546	-695.61798	283.94861	1539.55493	-591.23669	-5.06519	1047.67078	-584.38733	220.18600	1066.87061	-639.79181	279.90067	875.71600	-584.89899	-5.05796	801.15009	-583.87158	215.09648	815.15009	-722.27094	249.26590	640.65558	-692.38647	82.01987	575.06372	-689.96332	141.39354	574.78271	-668.72107	20.90895	519.59808	-728.61047	244.14055	576.52289	-771.43506	253.05426	503.29056	-675.96252	204.06702	532.31207	-716.09393	81.25587	215.68459	-664.94104	-65.17769	164.85023	-711.58282	151.11018	216.23036	-771.53583	220.94754	204.93999	-882.50342	296.22003	144.72592	-674.23718	58.10786	155.73940	-602.81934	20.10240	165.56161	-675.38373	171.58023	156.65527	-594.85229	222.54338	173.48900	-666.97198	298.11627	160.56921	-630.02783	306.14716	161.78748	-561.05231	262.35568	165.57437	-528.03156	304.52658	146.55516	-657.39398	108.72289	1849.67407	-601.20276	101.78925	1429.63013	-691.22870	271.77591	748.94769	-517.72980	-72.69471	142.77153	-561.81824	-42.75612	163.50072	-796.06683	171.05121	184.31908	-793.71942	58.79907	175.51619	-790.65582	93.75681	1059.12500	-763.74670	-32.92495	487.89993	-766.57324	-2.71722	207.53006	-876.02838	-78.54763	141.55200	-703.31830	-26.98235	615.35687	-716.95734	-23.31752	566.73364	-623.98315	-77.00025	160.32489	-695.96344	-48.91607	716.92407	-648.45959	-67.37319	867.18311	
70	1.380	-678.28766	-70.31917	1553.21362	-695.53101	283.87744	1539.59302	-591.51514	-5.08089	1047.53308	-584.59180	220.12013	1067.19922	-639.78326	279.95197	875.62842	-585.01593	-5.04500	801.53162	-583.87158	215.09648	815.15009	-722.30292	249.27640	640.57410	-692.64673	82.24635	574.99573	-690.00842	140.93864	574.88934	-668.86475	20.83728	519.52771	-728.74286	244.29076	576.64844	-771.49658	253.21402	503.64960	-676.02814	203.92754	532.33618	-716.09393	81.25587	215.68459	-664.90527	-65.05202	164.79028	-711.58282	151.11018	216.23036	-771.62109	221.00496	204.99788	-882.52289	296.28217	144.76390	-674.31238	58.12797	155.66064	-602.74243	20.05641	165.45497	-675.30359	171.59724	156.77390	-594.85229	222.54338	173.48900	-667.01581	298.11520	160.55119	-630.10272	306.03638	161.82530	-561.17963	262.32416	165.43759	-528.03979	304.43768	146.58080	-656.95062	108.70089	1849.55713	-601.20276	101.78925	1429.63013	-691.22870	271.77591	748.94769	-517.72174	-72.61513	142.64165	-561.77026	-42.83794	163.52461	-796.06683	171.05121	184.31908	-793.71820	58.74121	175.45107	-790.65582	93.75681	1059.12500	-763.99750	-32.84194	487.96823	-766.57324	-2.71722	207.53006	-876.13934	-78.71100	141.67271	-703.33887	-27.29915	615.49249	-717.19904	-23.17016	566.67072	-624.06134	-76.83529	160.21658	-695.96344	-48.91607	716.92407	-648.49701	-67.27838	867.21600	
71	1.400	-678.16400	-70.48910	1553.27600	-695.20190	283.63681	1539.57361	-591.58069	-5.09434	1047.56335	-584.71252	220.04045	1067.12390	-639.92010	279.94510	875.74261	-585.39600	-4.84896	801.37854	-584.06995	215.15559	815.46332	-722.53595	249.35201	640.57025	-692.92731	82.02847	575.17914	-689.96332	141.39354	574.78271	-669.00769	20.80530	519.51276	-728.73816	244.21451	576.73657	-771.58734	253.11661	503.55042	-676.05933	204.12923	532.41559	-716.09393	81.25587	215.68459	-664.82544	-65.19738	164.76939	-711.46558	151.13298	216.24181	-771.54663	221.03500	205.10368	-882.47626	296.21518	144.76204	-674.44812	58.24941	155.76253	-602.71228	20.01507	165.61494	-675.16437	171.55780	156.94189	-594.85229	222.54338	173.48900	-667.02753	298.19891	160.60303	-629.94537	306.21439	161.84576	-561.21167	262.24078	165.67325	-528.03979	304.43768	146.58080	-656.22302	108.47382	1849.57520	-601.00415	101.55714	1429.48450	-691.38843	271.97610	749.07007	-517.66736	-72.72713	142.77681	-561.82611	-42.77196	163.53278	-796.20569	171.03809	184.40999	-793.75500	58.64328	175.51073	-790.77142	93.90977	1059.11804	-764.07764	-32.90281	487.73428	-766.59570	-2.56272	207.53418	-876.05151	-78.64049	141.43311	-703.57867	-27.04485	615.32465	-717.34454	-23.01171	566.56030	-624.01465	-76.90385	160.26352	-696.14404	-48.65777	716.92548	-648.67944	-67.54939	867.44580	
